# xmcd
#
# Track frame offsets: 
#        150
#        17506
#        31168
#        51393
#        63917
#        75696
#        93455
#        111016
#        129271
#        171633
#        189099
#        203858
#        220919
#        237222
#        249921
#        264716
#        274470
#        298296
#        312808
#        327386
#
# Disc length: 4631 seconds
#
# Revision: 0
# Processed by: cddbd v1.5.2PL0 Copyright (c) Steve Scherf et al.
# Submitted via: ExactAudioCopy v1.1
#
DISCID=25121514
DTITLE=Henning Pertiet - LIVE 2016
DYEAR=2016
DGENRE=Blues
TTITLE0=Opening Boogie
TTITLE1=Boogie De Lux
TTITLE2=Bluestime!
TTITLE3=Down In The Alley
TTITLE4=Boogie For You
TTITLE5=Cecil's Boogie
TTITLE6=Dee Dee and The Vegetable Cake
TTITLE7=CMP Boogie
TTITLE8=Ligony Extended
TTITLE9=Headin' Home
TTITLE10=Spannish Boogie
TTITLE11=Roosevelt Boogie
TTITLE12=Chicago Blues
TTITLE13=The Fives
TTITLE14=Jimmy's Rocks
TTITLE15=Honky Tonk Train Blues
TTITLE16=Lil' Ol' Blues 4 U
TTITLE17=Grasser's Blues
TTITLE18=DD's Boogie
TTITLE19=How Long Blues
EXTD=
EXTT0=
EXTT1=
EXTT2=
EXTT3=
EXTT4=
EXTT5=
EXTT6=
EXTT7=
EXTT8=
EXTT9=
EXTT10=
EXTT11=
EXTT12=
EXTT13=
EXTT14=
EXTT15=
EXTT16=
EXTT17=
EXTT18=
EXTT19=
PLAYORDER=
